<svg width="153" height="152" viewBox="0 0 153 152" fill="none" xmlns="http://www.w3.org/2000/svg">
<circle opacity="0.1" cx="76.5" cy="76" r="76" fill="#FF4A4A"/>
<path d="M76.5 100.25C88.6302 100.25 98.5 90.3806 98.5 78.2504C98.5 69.0379 92.802 61.1426 84.75 57.8701V63.9834C87.255 65.4296 89.3358 67.509 90.7838 70.0131C92.2318 72.5171 92.9961 75.3578 93 78.2504C93 87.3501 85.5998 94.7504 76.5 94.7504C67.4002 94.7504 60 87.3501 60 78.2504C60.0037 75.3578 60.7678 72.517 62.2158 70.0129C63.6638 67.5088 65.7448 65.4294 68.25 63.9834V57.8701C60.198 61.1426 54.5 69.0379 54.5 78.2504C54.5 90.3806 64.3698 100.25 76.5 100.25Z" fill="#FF4A4A"/>
<path d="M73.75 48H79.25V75.5H73.75V48Z" fill="#FF4A4A"/>
</svg>
